<svg xmlns="http://www.w3.org/2000/svg" width="1200" height="760" viewBox="0 0 1200 760" role="img" aria-labelledby="title desc">
  <title id="title">Bristol Bears vs Gloucester Rugby match preview graphic</title>
  <desc id="desc">Original soft-color rugby match card for Bristol Bears versus Gloucester Rugby at Ashton Gate on April 17, 2026.</desc>
  <defs>
    <linearGradient id="bg" x1="0" x2="1" y1="0" y2="1">
      <stop offset="0" stop-color="#f9fbf8"/>
      <stop offset="0.52" stop-color="#f3fbf9"/>
      <stop offset="1" stop-color="#fff5f8"/>
    </linearGradient>
    <linearGradient id="line" x1="0" x2="1" y1="0" y2="0">
      <stop offset="0" stop-color="#8ecfc6"/>
      <stop offset="0.5" stop-color="#d99aad"/>
      <stop offset="1" stop-color="#d6c76e"/>
    </linearGradient>
    <filter id="shadow" x="-20%" y="-20%" width="140%" height="140%">
      <feDropShadow dx="0" dy="18" stdDeviation="18" flood-color="#6b5960" flood-opacity="0.16"/>
    </filter>
  </defs>
  <rect width="1200" height="760" fill="url(#bg)"/>
  <rect x="50" y="48" width="1100" height="664" rx="26" fill="#ffffff" stroke="url(#line)" stroke-width="8" filter="url(#shadow)"/>
  <rect x="86" y="86" width="1028" height="592" rx="20" fill="#fbfffc" stroke="#e9c7d3" stroke-width="3"/>
  <path d="M150 568 C278 486 356 502 462 428 C548 368 622 326 720 350 C834 377 887 492 1048 386" fill="none" stroke="#b8ddd6" stroke-width="16" stroke-linecap="round"/>
  <path d="M150 574 C278 492 356 508 462 434 C548 374 622 332 720 356 C834 383 887 498 1048 392" fill="none" stroke="#dc9aac" stroke-width="5" stroke-linecap="round"/>
  <circle cx="600" cy="390" r="90" fill="#ffffff" stroke="#ecd0dc" stroke-width="6"/>
  <ellipse cx="600" cy="390" rx="104" ry="50" fill="none" stroke="#adcfc9" stroke-width="10" transform="rotate(-18 600 390)"/>
  <line x1="522" y1="421" x2="678" y2="359" stroke="#adcfc9" stroke-width="6" stroke-linecap="round"/>
  <line x1="562" y1="403" x2="578" y2="446" stroke="#dc9aac" stroke-width="5" stroke-linecap="round"/>
  <line x1="598" y1="389" x2="614" y2="431" stroke="#dc9aac" stroke-width="5" stroke-linecap="round"/>
  <line x1="634" y1="375" x2="650" y2="417" stroke="#dc9aac" stroke-width="5" stroke-linecap="round"/>
  <text x="112" y="148" fill="#284148" font-family="Arial, Helvetica, sans-serif" font-size="28" font-weight="800" letter-spacing="0">GALLAGHER PREM | APRIL 17, 2026</text>
  <text x="112" y="252" fill="#17282d" font-family="Arial, Helvetica, sans-serif" font-size="82" font-weight="900" letter-spacing="0">Bristol Bears</text>
  <text x="112" y="342" fill="#7c4b5b" font-family="Arial, Helvetica, sans-serif" font-size="82" font-weight="900" letter-spacing="0">vs Gloucester</text>
  <text x="112" y="416" fill="#526366" font-family="Arial, Helvetica, sans-serif" font-size="34" font-weight="700" letter-spacing="0">Ashton Gate - 7:45 PM BST</text>
  <rect x="740" y="124" width="330" height="118" rx="16" fill="#f7fbf8" stroke="#d9b6c4" stroke-width="4"/>
  <text x="770" y="174" fill="#284148" font-family="Arial, Helvetica, sans-serif" font-size="28" font-weight="800" letter-spacing="0">BRISTOL</text>
  <text x="770" y="216" fill="#7c4b5b" font-family="Arial, Helvetica, sans-serif" font-size="42" font-weight="900" letter-spacing="0">5th | 38 pts</text>
  <rect x="740" y="270" width="330" height="118" rx="16" fill="#fff8fb" stroke="#d9b6c4" stroke-width="4"/>
  <text x="770" y="320" fill="#284148" font-family="Arial, Helvetica, sans-serif" font-size="28" font-weight="800" letter-spacing="0">GLOUCESTER</text>
  <text x="770" y="362" fill="#7c4b5b" font-family="Arial, Helvetica, sans-serif" font-size="42" font-weight="900" letter-spacing="0">8th | 16 pts</text>
  <rect x="740" y="416" width="330" height="132" rx="16" fill="#f8fcfb" stroke="#d7ded7" stroke-width="4"/>
  <text x="770" y="468" fill="#284148" font-family="Arial, Helvetica, sans-serif" font-size="31" font-weight="900" letter-spacing="0">West Country</text>
  <text x="770" y="510" fill="#7c4b5b" font-family="Arial, Helvetica, sans-serif" font-size="31" font-weight="900" letter-spacing="0">rivalry watch</text>
  <text x="112" y="642" fill="#6a7677" font-family="Arial, Helvetica, sans-serif" font-size="24" font-weight="700" letter-spacing="0">zeshanalikhan.github.io/bristol-gloucester-prem-preview</text>
</svg>
